<svg id="2" viewBox="0 0 23 18" fill="none" xmlns="http://www.w3.org/2000/svg">
<path d="M21.3391 2.9033L1.66049 2.9033C1.29839 2.9033 1.00468 2.41194 1.00485 1.80663C1.00501 1.20123 1.29903 0.709963 1.66108 0.709963L21.3397 0.709961C21.7018 0.709961 21.9955 1.20132 21.9953 1.80663C21.9951 2.41194 21.7011 2.9033 21.3391 2.9033Z" fill="#101010" stroke="white" stroke-width="0.2"/>
<path d="M1.65885 7.90332L21.3374 7.90332C21.6995 7.90332 21.9932 8.39468 21.9931 8.99998C21.9929 9.60529 21.6989 10.0966 21.3368 10.0966L1.65826 10.0966C1.29616 10.0966 1.00245 9.60529 1.00262 8.99998C1.00278 8.39468 1.29675 7.90332 1.65885 7.90332Z" fill="#101010" stroke="white" stroke-width="0.2"/>
<path d="M1.65661 15.0967L21.3352 15.0967C21.6973 15.0967 21.991 15.588 21.9908 16.1933C21.9907 16.7986 21.6967 17.29 21.3346 17.29L1.65602 17.29C1.29392 17.29 1.00022 16.7987 1.00038 16.1933C1.00054 15.588 1.29451 15.0967 1.65661 15.0967Z" fill="#101010" stroke="white" stroke-width="0.2"/>
</svg>
