<svg id="3" viewBox="0 0 18 19" fill="none" xmlns="http://www.w3.org/2000/svg">
<path d="M0.561352 17.4263C0.248933 17.1139 0.248932 16.6074 0.561352 16.295L6.58067 10.2756C6.89309 9.96323 6.89309 9.4567 6.58067 9.14428L0.561351 3.12496C0.248932 2.81254 0.248933 2.30601 0.561352 1.99359L1.2793 1.27565C1.59172 0.963227 2.09825 0.963227 2.41067 1.27565L8.42998 7.29496C8.7424 7.60738 9.24893 7.60738 9.56135 7.29496L15.5631 1.29326C15.8755 0.98084 16.382 0.980839 16.6944 1.29326L17.4124 2.0112C17.7248 2.32362 17.7248 2.83015 17.4124 3.14257L11.4107 9.14427C11.0982 9.45669 11.0982 9.96323 11.4107 10.2756L17.43 16.295C17.7424 16.6074 17.7424 17.1139 17.43 17.4263L16.712 18.1443C16.3996 18.4567 15.8931 18.4567 15.5807 18.1443L9.56135 12.125C9.24893 11.8125 8.7424 11.8125 8.42998 12.125L2.41067 18.1443C2.09825 18.4567 1.59172 18.4567 1.2793 18.1443L0.561352 17.4263Z" fill="black" stroke="white" stroke-width="0.2"/>
</svg>
